<?xml version="1.0" encoding="UTF-8"?>
<svg id="Layer_1" xmlns="http://www.w3.org/2000/svg" version="1.1" viewBox="0 0 203.8 45">
  <!-- Generator: Adobe Illustrator 29.1.0, SVG Export Plug-In . SVG Version: 2.1.0 Build 142)  -->
  <defs>
    <style>
      .st0 {
        fill: #414141;
      }
    </style>
  </defs>
  <path class="st0" d="M1.5,3v1.2c0-.2-.2-.5-.2-.7s0-.4.2-.5ZM3.4,35.4c-.4,0-.2,1-.9,1,0,0,.2,0,.3.2v.5s.2,0,.4.2v.5s.2.2.2.3v.2c-.2,0-.5-.3-.6-.3-.2,0-.3,0-.3.2s0,0,.2.3c-.2.7.6,0,1,.7-.2.3-.5.6-.7,1,0,0,.2.3.3.5,0,0,.2.2.3.2,0,0-.2.3-.4.4,0-.6-.7-.4-1.1-.5,0-.5.2-1,0-1.5h.3s0,.2.2.3h.2c0-.2-.2-.4-.2-.5,0,0-.4,0-.5.2-.1-.5,0-.9,0-1.4s0-.2,0-.4v-1.3s.2-.5,0-.7c0-.2.2-.7.3-.9,0,0-.2-.4-.2-.6h0v-3h0v-.4c-.1,0-.2,0-.2-.1,0-.1,0-.4.2-.6h0v-3.3h.3v1.4c0,.2.3.5.3.6v.2c.3.4.3.2.3.5,0,.5-.3.2-.3.6v.5l.3.2h0v.9c0,.2,0,.5-.2.6,0,0-.3.3-.3.4s.2.3.3.5c0,0-.3.2-.4.3,0,.2.4.6.4.7s0,.2-.2.2-.2-.2-.2,0c0,.3.6,1.1.7,1.1h.3,0ZM2.9,41.2c0,.6-.3,1.1-.5,1.4,0-.2-.3-.5-.5-.5.5-.2.6-.6,1-1h0ZM2.1,5.6h0v-.2h-.2.1v.2ZM2.4,41.4h-.3c0-.2,0-.5.2-.5h.2v.4h-.1ZM13,37.5s-.1.5-.1,1.9h-1.3c-.5,0-1-.2-1.4-.2-.8,0-2.1,0-2.8-.3V10.6c-.2-.3-2.6-.2-3.3-.2h-1.1c-.8.1-.5-.6-.8-1,.2,0,.5-.5.5-.6s0-.3-.2-.3c.2,0,.3-.7.3-1.1,0,0,.4-.4.2-.5.3,0,.6-.5.6-.8h1.9c.3,0,0,0,0,0h1.6l11.3.2c-.2.5-.1,1.1-.1,1.6,0,0-.1,0-.1.2s0,.2.1.2c0,.8,0,1.5.1,2.3h-1.8l-3.2.2c-.1,0-.3-.1-.5-.1s-.4-.1-.4.3v4.1h0v.3h-.1c0,.2.1.6.1.9v10.2h0v.4h0c0,2.2.3,6,.3,7v3.7h-.1.3ZM2.3,24.4h0v1.2c0-.2-.2-.5-.2-.7v-.4h0c0-.1,0-.1,0-.1h.1ZM2.4,3.7v-.9c0,.4.2.7.4.9,0,0-.4,0-.4,0ZM2.4,16.7h.2v.2h0v-.2h-.2ZM2.5,17.4s0,.4.2.4h-.2v.2-.6h0ZM3.3,39.7s0,.4.2.4h-.2v.2-.6h0ZM3.3,32.8v-.9c0,.4.2.7.4.9h-.4ZM3.6,7.5v.2h.4v-.2h-.4ZM6.2,7.8v-.3l-.3-.3h-.3v.6h.5l.2-.2v.2h0ZM5.7,7.9v.3h.6c0-.1-.6-.3-.6-.3ZM5.9,9v.2h.3v-.2h-.3ZM7.3,7.6h-.2c-.4,0-.5.3-.7.5.2,0,.4.2.5.1,0-.3.2-.5.4-.5h0ZM7.6,8.9v-.4h-.2c-.2.2-.3.5,0,.6l.2-.2h0ZM7.2,6.9v.2h.3v-.2h-.3ZM7.5,40.7v-.3h.6c0,.2,0,.5-.2.7l-.4-.3h0ZM8.7,9.5c.2,0,.4,0,.5-.2v-.2c-.2,0-.5-.1-.6-.1s-.3.2-.4.4c.2,0,.4,0,.5.1ZM9.3,20.8h0v-.2h0v.2ZM9.9,7.2v.4h.2v-.4h-.4.2ZM10,25.8h.3c0,.1-.3,0-.3,0ZM10.5,31.8h0c0,.1-.1.1-.1,0h.2,0ZM10.5,16.7c0-.2.2-.4.2-.5-.1,0-.3.2-.3.3s0,.2.1.2ZM11.2,35.7h-.2c-.2,0-.5.4-.5.5v1.6c.2.4,0,.2,0,.4,0,.3,0,.4.3,1h.2c.2-.4,0-.8.3-.9v-2.6h-.1ZM10.9,24h-.3s.2,0,.2.1v-.2h.1ZM11.2,35.4h.2s-.2-.2-.2-.3c.1,0,.3,0,.3-.2-.3-.3,0-.6,0-1.7h0s.2-.2.2-.4-.2-.7-.2-1.1v-.8c.3,0,.4-1.6.4-1.6,0-.2-.3-.2-.3-.6-.2.5-.5,1.1-.4,1.6,0,.1-.1.2-.1.3v.2c0,.1-.2.2-.2.4s0,0,0,0v.3h.2c0,.1,0,.4-.2.5,0,.7,0,.9-.3,3.1.2,0,.5.2.6.2v.2h0ZM10.7,8.7c0,.1,0,.3.2.4,0-.1.1-.3.1-.4h-.3ZM11.5,7.3v-.3h-.2v.3h.2ZM11.6,27.2s-.1.1-.2.2h0c0,.1.2.1.2.1v-.3ZM15.4,20.3v-.9c0,.4.2.7.4.9h-.4ZM16.9,28.4v-.6s-.2.2-.2.3v-.3h.3v-.2c0,.4.2.7.4.9h-.5,0ZM17.3,33.8h0s0-.2.1-.2h-.2.1v.2ZM18.6,41s-.2.3-.3.3c-.2,0-.4-.5-.4-.5,0,0,.3-.6.3-.7s0,0,0,0l-.2-.3h0s0-.3.1-.5c0-.3-.1-.6,0-1,0,0,.1,0,.2-.2,0,0-.2-.3-.3-.6.3,0,.3-.2.3-.3s-.1-.3-.2-.4c0,0,.5-.3.4-.5,0,0-.2,0-.4-.2,0-.2.1-.4.1-.6h0v-.2h-.2v-.2h0c.1,0,.5,0,.5-.4.2.4.5.2.5.6s-.4.4-.4.6.1.2.2.4v.5c0,.2,0,0-.4.5.1.2.5.4.5.5,0,.3-.2.2-.4.4.1.2.4.3.4.5s0,0,0,0h0c-.3,0-.3.3-.3.3,0,0,.3.6.3.7v1.4h-.3ZM18,31.6v-.2c0-.4.4-.1,0-1,0,0,.3-.2.4-.3h.2c-.1.6,0,.6,0,.8s0,.3-.3.5l.3.3v1.5s-.1.2-.1.3v.9s-.2.2-.3.2h-.3v-.7s-.1-.4-.1-.5h0l.2-.4h0v-1.3h0ZM18.6,29.2v-.6h-.3c0-.2,0-.3.1-.4.1-.1.2,0,.3.2h0c0,.4.2.6.4.8h-.5ZM20,31.3v-.9c0,.4.2.7.4.9h-.4ZM21.3,20.9h.2v.4h-.4v-.2h.2s0-.2,0-.2Z"/>
  <path class="st0" d="M22.4,33.8v-.9c0,.4.2.7.4.9h-.4ZM22.5,34.2h0s0-.2.1-.2h-.2.1v.2ZM22.4,37.7v-.9c0,.4.2.7.4.9h-.4ZM22.5,40.5v-.9c0,.4.2.7.4.9h-.4ZM25.3,42.3h.2v.2h-.1v-.2h-.1ZM39.7,5.5h1.6v1.6c0,.2,0,.4-.2.6.5.5.3,1.1,0,1.1v.4l.2.2v4.9s-.2.1-.2.2v1c.2.4.4.7,0,.9v2.3c0,.2-.2.7,0,1v.5s-.2,0-.2.2v3.7c.4.4,0,1.1,0,1.5v12.8c0,.4-.2.8-.3,1.2h-.2s-.2-.2-.4-.2h-.6s-.2.2-.2.4h0s0-.3-.3-.3h-1.3v-.3.2c-.3,0-1,.3-1.1.3s-.5-.2-.8-.3c-.2-.4-.2-.8,0-1.3v-11.8s-.2-.3-.2-.5v-1.1c-.3-.2-.8-.1-1.2-.1h-2c-.1,0-.2,0-.3.2v8.7h0v.5h0v4.8c-.4.5,0,.5-.3.9h-2.3v-.2h-.3c-.2,0-.2.2-.4.2h-1.9v-.9h-.2v-1.1h0v-.3h0s.2,0,.2-.3-.2-.4-.2-.5v-2.8s.2-.3.2-.5-.2-.6-.3-.8c0-.2,0-.5.1-.6-.2-.5-.3-.9-.1-1.5v-15.3c-.1,0-.1-.1-.2-.2v-4.2s-.1-.2-.2-.3c.5-.4.2-.8.2-1.3v-3.5c.2,0,.5.4.6.4s.2,0,.4-.2h.1s0,.3-.2.4c0,.3.3.2.5.3l.5.5c.3-.2,0,0,0-.3v-.2h.4c.2,0,0,0,0,0h.3c.3,0,.9.3,1,.4.1,0,.2-.2.2-.3h.2s0,.3.2.5c.1,0,.2,0,.3-.3,0,.2,0,.4.1.6h.3c-.2.5,0,1.1,0,1.6s-.2.3-.2.5.2.4.2.7-.1.3,0,.5c0,.7.4,1.9,0,2.7h0v3.8c0,.5.1,1.1.1,1.6v.4c-.1,0-.1.3-.1.3v.3h0c.2.1.4-.2.6-.4,0,0,.3.2.5.2s0,0,0,0l.4-.2h0s.2,0,.3.1h.6c0,.1,0,.2.2.2s.8-.2.8-.4v-8h0v-3.6c0-.5,0-.7.3-1.2,0,0-.2-.3-.2-.4h.5s.3-.2.5-.2c0,0,0-.3.2-.4v.4h1.3l.2.3c.2,0,.4-.3.6-.3s0,0,0,0h.3l.8-.3h.6ZM28,8v-.3h-.1v.3h.1ZM28.5,32.2v.2s.5-.5.5-.7-.2-.3-.2-.4c-.2.1-.5.2-.7.3v.2l.2.4h.2ZM29.6,5.9h-1.3c.3,0,.5,0,.7-.4h.4s0,.3.1.3h2.4s.3.2.4.3v.2s-.2,0-.3-.2h-2.3v-.2ZM28.6,40.9c.4-.3.3-.3.5-.3h.3s-.1.2-.3.3h-.5ZM28.8,11.6h0v-.2h0v.2ZM29.1,22.4s0,.2-.1.2c0,.1.3.3.4.4h.3c0-.2-.2-.5-.2-.6,0,0-.4,0-.4,0ZM29.7,24.8c-.1-.3-.1-.5-.2-.7h-.3c-.1.1-.2.2-.2.4s.2.4.3.5c.1,0,.3-.1.4-.1h0ZM29.4,40.8v-.9c0,.4.2.7.4.9h-.4ZM29.5,31.3h.2-.2ZM29.9,31h.6v-.2h-.6v.2ZM30.6,35.4s.2,0,.3-.2l-.2-.2c-.1,0-.3.3-.3.4h.2ZM30.6,24.4h-.2c0-.1.1-.1.1-.1h.1ZM31,20.7c-.1,0-.3-.1-.5,0,0,0,0,.3.3.3s.2-.2.2-.2h0ZM30.5,23.4h.1v.3-.2h-.1ZM30.5,34.2h.2-.2ZM30.7,22.1s-.1.2-.1.3c.3,0,.4,0,.4-.2h-.3ZM30.6,31.2v.2h.4v-.2h-.2s-.2,0-.2,0ZM30.7,22.8h0c0,.1.2.1.2.1h0c0-.1-.2-.1-.2-.1ZM30.8,38.3c.2,0,.3-.2.3-.4s0-.3-.2-.3c0,0-.1,0-.1.2h0v.4h0ZM31,11.9l-.2.2v.4c.2,0,.4,0,.5.2h.1s0-.2-.1-.2v-.5h-.3ZM31,25.2v-.2h0v.2h0ZM31.2,31.8h.1-.1ZM31.4,23.5s.4-.4.4-.5v-.2c-.2,0-.4.1-.5.1,0,.2,0,.5.2.6h-.1ZM31.3,33.7v.2h.2s0-.2.1-.2h-.4,0ZM31.7,21.6v-.2c0-.2-.2-.3-.3-.3v.2c0,.2.2.3.4.3h-.1ZM31.6,42v-.9c0,.4.2.7.4.9h-.4ZM31.8,41.5v-.9c0,.4.2.7.4.9h-.4ZM32.1,22.3h0c0,.2.3.3.4.3h0v-.4h-.5,0ZM33.2,24.5c0-.1.3-.2.5-.2s.2,0,.3.2c0-.2,0-.4.2-.5h-.4c-.2,0-.4-.2-.4-.3,0,.7-.9,0-1,.7h.8ZM32.6,20h.2-.2ZM32.8,21.5h0ZM33.4,21.4c0,.1-.2.2-.2.4,0,.4.7.5.9.9h.6v-.3c0-.2-.3-.4-.5-.4s0,0,0,0c-.2,0-.5-.6-.5-.7h-.3ZM33.7,41.9s0-.2.2-.3c0,0,.2,0,.4.2h0c0,.3-.5.4-.5.4h-.5s.3,0,.4-.2h0ZM34,23.3h0v-.2h0v.2ZM34,40.9h0v-.2h-.2,0v.2ZM34,39.9h0v-.2h-.2,0v.2ZM34.1,38.7v-.9c0,.4.2.7.4.9h-.4ZM34.6,21.1c.6,0,.5-.3,1-.6h0s0,.2-.3.2-.2,0-.3-.2c0,0-.4.3-.4.5v.3s0-.2,0-.2ZM34.5,24.3s.2.1.3.1.3-.2.4-.4h-.7v.3ZM35.2,41.3h-.5v-.3s.3,0,.5.2h0ZM35.4,31.8c-.2,0-.4-.1-.6-.1v-.3h.3c.2,0,.3.1.4.2v.2s0,0-.1,0ZM35,38.4v-.2h.4v.3h-.5,0ZM35.4,34v.2h-.4v-.2h.4ZM35.4,41.6h.6c-.3.4-.6.5-.9.7,0,0,0-.6.2-.7h.1ZM35.7,21.3h0l-.2-.2h0l.2.2ZM35.6,42.2v1.2c0-.2-.2-.5-.2-.7s0-.4.2-.5ZM36.1,24.1h-.5v.2s.2.1.4.1,0,0,0,0v-.2h0ZM35.8,22.2h.4s-.2-.2-.3-.2v.2h-.1ZM35.9,42.6c.2,0,.4.3.6.3,0,.4-.2.3-.3.3s-.4-.3-.4-.4v-.2s0,0,.1,0ZM36,22.8h0c0,.1.2.1.2.1h0c0-.1-.2-.1-.2-.1ZM36.3,40.1h-.2.2ZM36.5,20.7h-.2v.2-.2h.2ZM36.6,36.3h0ZM36.9,26h.2-.2ZM36.9,32h.4-.4ZM37,9.6h0c0,.1.3.1.3.1h0c0-.1-.3-.1-.3-.1ZM37.1,22.5v-.2h-.2v.3h.2ZM37.2,10.4h.4-.4ZM37.4,19s.2.1.4.1.4-.1.5-.2v-.2h-.8v.3s0,0-.1,0ZM37.5,29.7h.4c0-.1-.2-.3-.2-.4h-.2v.4ZM37.5,37.7s.2.3.3.3c0,0-.2-.3-.3-.3ZM38.9,36.1l-.2-.2v.3h-.5c0,.2,0,.4.3.4s.4,0,.5-.2v-.2h0ZM38.2,33.1h0ZM38.2,31v.4h.2v-.5h-.2ZM38.5,38.7v-.6.6h.2-.2ZM38.4,26.9h0v-.2h0v.2ZM38.4,8.4h0v-.2h0v.2ZM38.7,7.3v-.2h0v.2h0ZM39,35.1s-.2-.3-.3-.3v.7h.2v-.3h0ZM38.7,32.2s0-.2.2-.2c0,0,0,.2-.2.2ZM38.8,21.6h.6v-.2h-.5v.2h0ZM39,42.6v-.9c0,.4.2.7.4.9h-.4ZM39.3,34.5h.2-.2ZM39.3,7.3h0v-.2h0v.2ZM39.6,35.7v-.4s-.2.2-.2.3h.3,0ZM39.3,37.4s.2.2.4.2.2-.2.2-.2c0,0-.3,0-.4-.2l-.2.2ZM39.7,40.7s0-.2.2-.3c0,0,.2,0,.4.2h0c0,.3-.5.4-.5.4h-.5s.3,0,.4-.2h0ZM39.4,13.8c0,.2.3.4.5.5,0-.2-.4-.4-.5-.5ZM39.7,39.6h.3v-.5l-.5.5h.2ZM39.7,42.9v-.2h.4v.3h-.5,0ZM39.7,39.6h.2-.2ZM40.3,35.5v-.3h-.5c0,.3,0,.5.3.7h.4v-.6s-.2.2-.3.2h.2-.1ZM40.5,22.2h0c0-.1-.2,0-.2,0,0,0,0,.2.2.2v-.3h0ZM40.5,41.2v-.9c0,.4.2.7.4.9h-.4ZM43.1,24c0,.2-.4.3-.6,0h.6ZM44.8,1.5c0-.2,0-.3-.3-.3,0-.2.3-.3.5-.5v.2c0,.2-.3.3-.3.5h0Z"/>
  <path class="st0" d="M48.5,1.3V.4c0,.4.2.7.4.9h-.4ZM48.6,22.8v-.9c0,.4.2.7.4.9h-.4ZM48.8,7.8v-.9c0,.4.2.7.4.9h-.4ZM49.2,42.6h-.3.2v.2h0v-.2ZM49.2,20.8h.2v.2h0v-.2h-.2ZM49.2,21.4h0c0-.1,0,0,0,.1h0ZM49.3,18.8c0-.1.5-.3.6-.3.3,0,.5.3.5.4s-.5.2-.5.2c0,0-.4-.2-.6-.3ZM49.8,19.7v.2l-.5-.2v-.2l.5.2ZM49.4,3.3v-.9c0,.4.2.7.4.9,0,0-.4,0-.4,0ZM49.5,18.9c0-.1.5-.3.6-.3.3,0,.5.3.5.4s-.5.2-.5.2c0,0-.4-.2-.6-.3ZM49.6,19.8v-.9c0,.4.2.7.4.9h-.4ZM49.8,23.5v-.9c0,.4.2.7.4.9h-.4ZM50.5,21.5v-.9c0,.4.2.7.4.9h-.4ZM56.6,36.2s.2.5.2.7v1.9h-2.1s-.6-.2-.8-.2-.5.2-.6.2h-1.6c-.2,0-.3-.2-.4-.3v-13.7c-.2-2.7,0-4.9,0-7,0,0,0-.2-.2-.2,0,0,0-.1.2-.2v-6.8s-.2-.2-.3-.2c.4-.2,0-1.8,0-2.6v-2.8h1.4s.3.2.4.2h2.8c.2,0,0,.3.3.3h.2c.2,0,.5.2.7.2,0,.2,0,.3-.2.5l.2.2c.2.2,0,.3,0,.4,0,.2.2.5.5.5h.5s.2,0,.3-.3c0,0,.2.4.4.4h1.3c0-.3-.2-.4-.3-.4l.2-.2c.4.3.5.6.8.6s0-.2.4-.4v-.2h-.6c.3-.2.7-.5.4-.7v-.2h.3c.2.3.6.5,1,.8.2,0,.5,0,.7.2,2.3,2,2.9,5.3,2.9,8.2s0,.2,0,.2c.3,1.8-.2,4-1.1,5.5-.4.2-.5.8-.9,1.2-.3.2-.6.5-.6,1s1.6,8,2.1,10h0c.5,2,.7,3.6,1.1,4.5,0,.2.2.9.2,1.1v.5h-.5s-.5-.2-.6-.2-.6.2-.8.2h-.3v-.2h-.2c-.2,0-.5,0-1,.2,0,0,0-.4-.3-.4s-.4,0-.5.2c0,0,0,.2.2.2h-.9.5v-.2h-.8c-.2,0-.2.2-.3.3,0-.4-.3-.6-.4-.9,0-1.1-.5-2.5-.7-3.7,0-.5-.2-2-.4-3-.5-2.2-.8-4.4-1.3-6.6,0,0,0-.2-.2-.2h-1.1v.9h-.3c0,.1.2.2.3.2,0,.3-.3.8-.3,1v3.1c0,.1.2.9.2,1.2h0v5.3l-.2-.3h0ZM53.1,39.4h.4v.3h-.5v-.3h0ZM55,34.1h0v.3h0v-.3ZM55.2,9.9c0,.3,0,.6.2.8h.2v-.8h-.5,0ZM55.5,32.3h.3-.3ZM55.6,25.3h.2c0-.1-.2-.1-.2-.1h0ZM55.7,6.8h.2-.2ZM56.1,23.6s0-.1-.2-.2c0,0-.2.2-.2.3h.4ZM55.9,26s-.2,0-.2.2,0,.1.2.1v-.3ZM60.3,13.9h0c.2-.4.3-1.9-.5-2.1h.3v-.4c-.2,0-.3.1-.4.3h0c0-.1.3-.3.3-.4,0-.9-2.1-1.5-2.2-1.6v-1.2s.3-.3.3-.5h-.3c-.2.3-.3.6-.5.8v.6s.3,0,.4.1c0,0-1.4.4-1.4.7s.6.6.6,1v.5h.2v7.7c0,.1-.2.2-.3.3h1.3c.5,0,1.1-.2,1.3-.5.4.5,1.5-1.7,1.5-2.5v-2.9h-.6ZM56,28.7h0v-.2h0v.2ZM56.1,19h0v.3h0v-.3ZM56.4,8.4h.2v-.2h0v.2h-.2ZM56.7,7.3c-.2.2-.2.4,0,.6h.3c0-.2,0-.5-.2-.6h0ZM56.6,21.3v.3h.2l-.2-.3ZM57.1,5.9v-.9c0,.4.2.7.4.9h-.4ZM57.1,6.4h.2-.2ZM57.5,16.5h0c0,.1-.2.1-.2.1h0c0-.1.2-.1.2-.1ZM57.4,13.8v-.2h0v.2h0ZM57.5,12.7v-.2c0-.2.2-.1.3-.1v.3h-.3ZM57.6,16.1h.2s0,.3-.3.4v-.4h0ZM57.6,5.7v-.9c0,.4.2.7.4.9h-.4ZM57.6,6.9h.2-.2ZM58.3,14.9c.4,0,0,.5.5.4h0c0,.1-.3.1-.3.1,0,0,0-.3-.2-.4h-.3c0-.1.2-.2.4-.2h-.1ZM58.1,11.7v.3-.3ZM58.7,20.6v-.2s-.3.2-.3.3h.3v-.2h0ZM58.9,7.7h-.4v.2h.5v-.2ZM59.2,12.2h-.8s0-.2.3-.2h.5v.2ZM58.5,6.8h0v.2h0v-.2ZM58.7,8.4h0v.2h0v-.2ZM58.6,13.4h0v.2h0v-.2ZM58.7,11.4h0ZM58.7,13.9h.2-.2ZM58.7,21.1c.2,0,.4-.1.4-.1,0-.2-.3-.2-.4-.2v.4h0ZM59.1,21.5c-.2,0-.3.3-.4.5h.5v-.5h0ZM59.2,8.9s-.4.3-.4.4h.5v-.4h0ZM59,22.5h0v.6h.2c0-.1.2-.3.2-.5v-.5h0l-.2.4h-.2ZM59.2,14.5v.4h-.2c0-.1.3-.2.3-.4h0ZM59,22l.7.2v-.3h-.7ZM59.2,7.7v.3h.3v-.3h-.4.1ZM59.5,20.7h-.3c0,.3.2.5.3.5v-.5ZM59.4,24.3h.2v-.3s-.3.2-.3.3h.2-.1ZM59.2,6.7v-.9c0,.4.2.7.4.9h-.4ZM59.2,13.9c.2,0,.4,0,.5-.5h0v.3c-.2.1-.5.2-.6.3v-.2h0ZM59.8,23.4h0c-.2,0-.4,0-.4.2s0,.2.2.2h0v-.3h.2ZM59.8,22.1v.5h.3c0-.2,0-.4-.2-.5h0ZM60.2,9.1s-.2-.1-.5-.1c0,.1.3.2.4.3h0v-.2h0ZM60,23.7c-.2,0-.3.3-.3.4h.3v-.4ZM59.9,8.2v.3h.2v-.3h-.2ZM60.2,27.6v-.2h-.4c0,.1.2.2.3.2h.1ZM59.9,20.8h.4v-.3l-.3.3h-.1ZM60.1,26.9h.3v-.4s0-.1-.2-.2c-.2.2-.3.4-.3.5h.2ZM60.3,25.6c.2,0,.3-.2.3-.3h-.4v.4h.1ZM60.3,24.2v.5h.5v-.3s0-.1-.2-.2h-.3ZM60.3,23.2h.4v-.3h-.4v.3ZM60.6,18.7s-.2.1-.2.3,0,0,0,.1c.2,0,.4.2.5,0v-.3h-.4.1ZM60.7,27.1h-.3c0,.1.2.1.2.1h0ZM60.5,18.2h.3-.3ZM60.9,7.6v-.2s-.2.3-.3.4h0s.2-.2.2-.3h0ZM60.9,9.3h-.2v.3c.2,0,.3-.2.4-.2h-.2ZM60.9,30.7h0c0,.1.2.1.2.1h0c0-.1,0-.1,0-.1h-.1ZM61.3,27.4h-.4v.2s.3,0,.4-.2ZM61.4,9.5c0,.1-.4.2-.4.5s.3.1.4.2v-.6h0ZM61.4,10.4h-.3v.3h.3v-.2h0ZM61.2,18.4h.4c0-.3-.2-.4-.3-.4v.4h-.1ZM61.8,19.6h-.2c0,.1.2.1.2.1h0ZM62,17c0-.3-.2-.4-.5-.5l.5.5ZM61.6,7.3s0,.3.2.3v-.2h-.3,0ZM62.5,13h-.2c0,.1-.3.2-.2.3h.3v-.2h.1ZM62.2,12.6h.2c0-.1,0-.2-.2-.2v.2ZM62.4,17.6h.4v-.2h-.4v.2ZM62.7,13.8s.3.1.4.1v-.2h-.4ZM62.9,7.8h.2-.2ZM63,14.3h0v-.2h0v.2ZM63.2,9.9c0-.2,0-.4-.2-.5v.6s.2,0,.2-.1ZM63,12.9v.2l.2-.2h-.2ZM63.5,10.6c-.2.1-.3.2-.4.4h.4v-.4ZM63.8,11.2c0,.1.2.3.2.3,0-.3-.2-.3-.2-.3ZM64.1,6.8v-.9c0,.4.2.7.4.9h-.4ZM64.3,38.6c0-.2.2-.2.2-.2h.4v.2s-.2.2-.2.3c0,0-.4-.3-.4-.4h0ZM64.6,33.6v.2-.2h-.2.2ZM64.8,34.2v.4s.3.2.4.2v-.6h-.4ZM65.3,35.5h0ZM65.5,33.4v-.9c0,.4.2.7.4.9h-.4ZM65.8,38.5h-.3c0-.2,0-.5.2-.5h.2v.4h0ZM66.8,13.4h0s.2.3.2.5h0v.2s-.4,0-.5-.2h0c0-.1.3-.1.3-.1v-.4h0ZM66.7,15.8v-.9c0,.4.2.7.4.9h-.4ZM66.7,31.1v-.9c0,.4.2.7.4.9h-.4ZM66.7,32.1v-.9c0,.4.2.7.4.9h-.4ZM66.9,17.8c-.3.2.2,1.6,0,2.5v-4.4c0,.1,0,.5.2.6-.4.5,0,.8,0,1.4h-.2Z"/>
  <path class="st0" d="M62.3,25v-.9c0,.4.2.7.4.9h-.4ZM65.3,21.6v-.9c0,.4.2.7.4.9h-.4ZM65.6,14.8v-.2s0-.1.2-.1.4.3.5.5c0,0-.2.1-.3.1s0-.2-.4-.2h0ZM66,14.3v-.9c0,.4.2.7.4.9h-.4ZM68.2,14.1v-.9c0,.4.2.7.4.9h-.4ZM68.5,8.2v-.9c0,.4.2.7.4.9h-.4ZM69.6,5h-.5c0-.2-.3-.5-.3-.7v-.3h.8v.7h0v.3ZM68.8,15.3c0-.2.3-.3.5-.5v.2c0,.2-.3.3-.3.5h0c0-.1,0-.3-.3-.3h.1ZM69.4,13.6h.2c0,.3.2.6.3.9,0,0,0,.2-.3.2s-.6-.4-.6-.6.3-.5.5-.5h0ZM69.3,15.8v-.2h.5c0,.2-.2.4-.4.5v-.3h0ZM69.7,13.1h-.3c0-.2,0-.5.2-.5h.2v.4h0ZM71.3,6.2l.2-.4s.4.3.4.5h-.6ZM73,41.6h.5s-.4.3-.5,0ZM73.7,40.6v-.9c0,.4.2.7.4.9h-.4ZM74.4,41.9v-.9c0,.4.2.7.4.9h-.4ZM74.9,42.1v-.9c0,.4.2.7.4.9h-.4ZM87.9,34.9c-.5.6,0,.9,0,1.3s-.3.6-.3.8c0,.5.5.8.5,1.1s-.5.9-.6,1.4h-5.9c.2-.5-.4-.4-.6-.4h-5.1c-.5,0-.4-.5-.4-.7s0-.4.2-.4c.3,0,.4.4.8.4s.5-.2.6-.2.3.2.5.2c.3,0,.2-.2.3-.4h.5v-.4c-.2-.2-.4-.2-.5-.3-.2-.4-.3-.4-.4-.4h-.5c0-.2-.2-.2-.3-.3,0,0,0-.2-.2-.4,0,0-.2,0-.3.3,0,0-.3-.3-.5-.3v-.6c0-.2-.2-.4-.2-.6v-11.3c0-.4,0,1,0-11.7s-.2-.4-.4-.4h.2v-6.1h11.2c0,0,.4-.2.5-.2h.3v4.6h-1.8c-.2,0-.4.1-.5.1s-.3-.1-.5-.1-.3.1-.5.1c-.3,0-1.8-.2-2.7,0,0,0-.5-.1-.7,0v1.9h0v6.7c.2.2.3.3.4.3.3,0,.8-.2.9-.2h2.2s.7,0,1.1.2c0,.6.2,1.7.2,1.8v3.3h-4.7v9.7c0,.4,0,.9.5.9h6.9l-.2.3ZM75.2,8.4h0c0,.1,0,0,0,0ZM75.6,41.2v-.9c0,.4.2.7.4.9h-.4ZM75.7,43.6v-.9c0,.4.2.7.4.9h-.4ZM75.9,42.7v-.4h.3v.5h-.3ZM76.6,40.6v-.9c0,.4.2.7.4.9h-.4ZM76.7,37.6v-.9c0,.4.2.7.4.9h-.4ZM77.1,34.2h-.2v.2q.3,0,.4-.2h-.2ZM77,33.2h.3s0,.3-.2.4v-.4h-.1ZM77.6,31.7h-.2v.2h.3v-.2h-.1ZM77.6,41.3v1.2c0-.2-.2-.5-.2-.7s0-.4.2-.5ZM77.9,26.2s-.2-.1-.3-.1v.2h0c0,.1.2,0,.3,0h0ZM77.5,29.2s0-.2.2-.3v.3h-.2ZM77.8,32.5h-.3.3ZM77.8,35l-.2.2h.2v-.3h0ZM77.6,2h.5c0,.3-.3,0-.5,0ZM77.7,37.6h.5v.4l-.5-.4ZM78.2,6.1s-.2.2-.3.2v-.4h.4v.2ZM78.1,28.4s-.2.1-.2.2h.3v-.2h-.1ZM77.8,31.1h.3s0,.3.2.5c-.2,0-.4-.3-.5-.5ZM78.1,33.3h-.2v.3h.3v-.3h-.1ZM78,39.5v-.9c0,.4.2.7.4.9h-.4ZM78.1,34.5h.2-.2ZM78.3,27.7s-.2-.4,0-.5c0,.1.2.3.2.4,0,0-.2.1-.3.1h.1ZM78.2,4.4v-.9c0,.4.2.7.4.9h-.4ZM78.3,27h.2c0-.1,0,0,0,0h-.2ZM78.8,29.5v-.2h-.2c0,.1-.2.3-.2.4h.4s0-.2,0-.2ZM78.5,31v.2h.5c0-.1-.5-.1-.5-.1h0ZM79.2,28.3c0-.1-.2-.2-.4-.2s-.2.1-.2.2v.7c0,.1.3.3.4.3s.2,0,.3-.1v-.8h-.1ZM78.6,31.9h.2v-.5s-.2.1-.2.3v.2ZM78.6,32.3v-.2h0v.2h0ZM78.6,37.6h.3v.2s-.2,0-.2-.2h-.1ZM79.2,25.6s-.2-.1-.2-.2h-.2v.4c.2,0,.4,0,.6-.1h-.2ZM79.1,30.6s-.3-.1-.4-.1v.3s.3,0,.4-.1h0ZM79,42.7h-.3c0-.2,0-.5.2-.5h.2v.4h0ZM78.8,26h.7c-.3,0-.5-.1-.6.2v-.2h0ZM79.2,27.4h.4c0-.4,0-.7.2-.9h-.4c-.2,0-.4.2-.6.3.2,0,.4.1.4.3v.4h0ZM78.9,32.4v-.2h.4v.2h-.4ZM79,30v-.3c0-.1,0-.2.2-.2v.4h-.2ZM79.2,30.6v-.2h.4v.2h-.4ZM79.2.6V-.3c0,.4.2.7.4.9,0,0-.4,0-.4,0ZM80.4,27.8h-.2s0,.2-.2.3v-.4h-.3c0,.1.2.2.2.3-.2.1-.4.3-.5.5,0,0,.4.1.5.1s.4-.2.7-.3v-.5h-.2ZM80.1,30s0-.2-.2-.3h-.4s-.2,0-.3.1l.2.2c.2-.1.5-.1.6-.2v.2h.1ZM79.3,33h.3v-.2h-.3v.2ZM80,23.6c-.2,0-.6-.1-.6-.4,0,0,.3,0,.4.1h.3v.2h-.1ZM79.7,24.5s0,.1-.2.1v-.2h.2ZM79.6,1.5v-.9c0,.4.2.7.4.9h-.4ZM79.8,16.6l-.2.2h.2v-.3h0ZM79.7,18h.2-.2ZM79.9,21.3v.2c0,.2.2.3.4.4h.2v-.4s-.3-.1-.4-.1h-.2ZM79.8,26.9h.3c.1,0,.2,0,.3.2.1.2,0,.1-.3.1s-.3,0-.3-.3ZM79.8,31.6v.2c.2,0,.2-.1.2-.2h-.2ZM80.1,29.4c0-.1,0-.3-.2-.3v.2h.2ZM79.8,13.9v-.2h0v.2ZM79.9,28.9h.3v-.2h-.3v.2ZM80,4.4v-.9c0,.4.2.7.4.9h-.4ZM80.1,40.9v-.9c0,.4.2.7.4.9h-.4ZM80.4,20.2h-.2v.3h.2v-.3ZM80.5,3v-.9c0,.4.2.7.4.9h-.4ZM80.6,4.4v-.9c0,.4.2.7.4.9h-.4ZM81.1,23.5h0v-.3h-.5l.2.2h.3ZM80.7,1.8v-.9c0,.4.2.7.4.9h-.4ZM80.8,21.6h.2-.2ZM80.9,4.4v-.9c0,.4.2.7.4.9h-.4ZM81.1,38.1v-.2h0v.3h0ZM81.3,22.9c.2-.1.2-.3,0-.4v.4ZM82.1,35.5h-.4.4ZM81.9,36.4v.2h0s0-.2.2-.2h-.2ZM82.3,7c-.2,0-.3.2-.3.4h.4v-.4h0ZM82,36h.3-.3ZM82.1,5v-.9c0,.4.2.7.4.9h-.4ZM82.4,38.5h-.2v.2h.2v-.2ZM82.3,9.2h0ZM82.7,7h.6c-.2,0-.2-.2-.2-.3h0l.2-.4c-.3,0-.4,0-.4.2h0c-.2,0-.3.2-.4.5,0,0,.2,0,.2,0ZM83.1,8.2h0c0-.1-.2-.2-.4-.2s-.3.2-.3.3c0,0,.2.1.3.2h0v-.2h.4ZM83.2,40.9l.3.3v.5h-.7v-.8h.5-.1ZM82.6-.5v-.4h.3v.5s-.3,0-.3,0ZM82.9,23.7v.4h.4v-.4h-.4ZM83.1,22.2h-.2c0,.1.2.3.2.3v-.4h0ZM82.9,23.1h0c0,.2.2.2.3.4h-.2v-.2c0-.1,0,0,0,0h0v-.2h-.1ZM83.2,36.9v-.4h0v.3h0ZM83.9,35.8v.3h-.2v-.2s.4-.3.4-.4v.3h-.2ZM83.6,3.4h0q-.1,0,0,0ZM83.6,8.5v.4h.3v-.3q0-.2-.2-.2c-.2,0,0,0,0,0h-.2,0ZM83.7,4.4v-.2h.2c.2,0,.4.3.5.5h-.3c-.1,0,0-.2-.4-.2h0ZM83.8,38.2h0v.2h0v-.2ZM83.7,11.7v-.9c0,.4.2.7.4.9h-.4ZM83.9,21.6h.2-.3.1ZM84,37s0-.2.2-.3v.3h-.2ZM84.1,7.9h.4s0-.2-.2-.4v.4h-.2ZM84.3,22.2h-.2v.3h0v-.4h.2ZM84.4,36.4h.2v-.3.3h-.2ZM85.2,8.5c0-.2,0-.4-.2-.4,0,0-.2,0-.4.1v.3s.6,0,.6,0ZM85.1,7v-.2h0v.2ZM85,42.5v-.9c0,.4.2.7.4.9h-.4ZM85.1,5v-.9c0,.4.2.7.4.9h-.4ZM85.3,9.3h0ZM85.4,38s0,.3.2.3v-.3h-.4.2ZM85.7,8.1h.5v-.3h0c-.2,0-.4.2-.4.4h0ZM86.3,35.8h0ZM87.3,4.7v-.9c0,.4.2.7.4.9h-.4ZM87.8,13v-.9c0,.4.2.7.4.9h-.4ZM88.3,28.7v-.9c0,.4.2.7.4.9h-.4ZM90.1,17.9h.2v2.8h-.2v-2.8ZM90.1,26v-5.4h.2v5.4h-.2ZM90.1,27.7v-1.5c0,.3.2.8.2,1s-.2.4-.2.5ZM90.6,21.9l.4.5v.2l-.5-.5v-.2h0ZM90.7,8.8v-.9c0,.4.2.7.4.9h-.4ZM90.7,43.5v-.9c0,.4.2.7.4.9h-.4ZM90.8,40.4v-.4h.3v.5h-.3ZM91.2,4.2v-.9c0,.4.2.7.4.9h-.4ZM93.4,21.3h-.6s.3-.3.5-.3c0,0,0,.2.2.3h0ZM93.7,13.6h.2v.4h-.4v-.2h.2s0-.2,0-.2Z"/>
  <path class="st0" d="M107.2,6.7c0,.4.7.5,1,.8.4.6.4,1.1.6,1.1s0,0,0,0c.2.5,1,2.8,1,3.1v3.3c-.5,0-1.1.2-1.3.2h-1.8c0,.1-1.5.1-1.5.1-.3-.7,0-.9,0-1.1h0v-.2h0v-1.3c0-.5,0-1.1-.4-1.5-.2-.4-1-1-1.6-1s-.4,0-.6.3c-1.1.9-1.1,1.7-1.1,2.7,0,1.9,1.9,5.1,2.6,5.7,1.7,2.5,4.4,6.1,5.9,9.2,0,.7.6,2.3.5,2.7,0,.6.2.8.2.9s0,0,0,0c0,1.7-.5,4.2-1.7,5.9,0,0-.4.2-.5.3-.7,1.5-3.4,2.2-4.9,2.2s-1-.2-1.5-.2c-2,0-4.3-1.8-4.8-3.8,0,0-.2-.2-.3-.2v-.6s-.2-.2-.3-.3c0-.9-.2-1.2-.2-1.9v-1.1c0-.6-.2-1.6-.2-1.7s.2-.5.3-.6h1.8c.2,0,.5-.2.7-.2h2.1v.9c0,.1.2.8.3,1.4v1.5c0,.2,0,.5.2.6,0,.2.3.5.4.8.5.4.6.4,1.1.4,2,0,2.3-2,2.3-3.1s0-.2,0-.2c0-.5-.3-1.6-.6-2.2,0,0,0-.3-.2-.5,0-.8-.9-1.8-1.6-2.7v-.5c-.6-.5-1.3-1.8-1.8-2.2,0-.4-.6-1.3-1.1-1.7.2-.4-.5-.7-.7-1.1-.3-.4-.5-1.1-1.1-1.5,0-.5-.7-1.3-.9-1.8,0-.2-.2-.9-.3-1.2,0-.1-.3-.4-.4-.7v-.6s-.2-.3-.3-.5v-1.6c.5-.7,0-1.6.5-2.5l.5-1.4c0-.2.5-.4.5-.7.4-.2.9-.6,1.1-1,.2,0,.5,0,.7-.2,0,0,0-.3.2-.5,1,0,1-.6,1.7-.6s.4,0,.6,0,.3-.4.8-.4h2.6s.2,0,.3.2c.2,0,.5.2.9.4,0,0,0-.2.2-.3,0,0,.2,0,.4.2h0v.3h.2l-.5.2ZM98.3,34.1v.2h.3v-.2h-.3ZM99.2,36.2v-.3h0v.2h0ZM100.3,37.9v.2h.3v-.2h-.3ZM103.3,21.9v.2h.4v-.2h-.4ZM104.4,24.5v.5h.3v-.2l-.2-.2h-.1ZM104.7,37v-.3h-.2v.3h.2ZM105.2,36.2v-.4h0v.2h.4-.2l-.2.2ZM105,21.7v.7h.3v-.8h-.3ZM105.7,38h-.4v.3l.4-.3ZM105.4,22.9c0-.1.2-.2.3-.3h0c-.2-.1-.3-.1-.4-.1h-.3s0,.3.2.4h.2ZM105.3,36.9h.2c.2,0,.3-.2.3-.3h-.4v.4h0ZM106.4,11.1s-.2.1-.2.2h.2v-.3h0ZM106.4,26.4v.2h.4c0-.1-.4-.1-.4-.1h0ZM106.6,35.2h0v-.5.5h.2-.2ZM107.6,33h-.5s-.3.2-.4.2-.3.2-.3.3v.2h.6s.5-.4.5-.5v-.3h.1ZM106.7,32.3h0v.2h1v-.3s-.2-.4-.4-.5h0v.3h-.7c-.2,0,0,0,0,0v.2h.2,0ZM106.8,28v-.3h0v.2h0ZM107,25.7h0v-.2h0c-.2,0-.3.1-.3.3h.4,0ZM107.3,30h.3v-.2h0v-.2h-.4v.4h.2,0ZM107.4,33.8l-.2.2v.2h.5v-.3c0-.2,0,0,0,0h-.3ZM107.2,35.9c.2,0,.5.2.5.2v-.4h-.5v.2ZM107.4,8.9s0-.2.2-.2h0v.3h-.2ZM108,30.4h-.4c0,.2.2.4.4.5l.4-.3v-.3h-.4ZM108.4,27.7v.3c0,.1,0,.3.3.3s.3-.2.3-.3v-.2h-.6ZM108.9,34.3s.2,0,.2-.3-.2-.4-.4-.5c-.2,0-.2.3-.2.4s0,.3.2.5h.2ZM108.9,32.9v-.4h-.2v.4h.2ZM109.1,32.5h0v-.4h-.3v.4h.4,0ZM109.5,29.8s-.2,0-.3-.1h0v.5s.4-.3.5-.3h-.2ZM110.8,29.1v-.9c0,.4.2.7.4.9h-.4Z"/>
  <path class="st0" d="M114.8,33.8v-.9c0,.4.2.7.4.9h-.4ZM114.8,34.2h0v-.2h-.2l.2.2ZM114.8,37.7v-.9c0,.4.2.7.4.9h-.4ZM114.8,40.5v-.9c0,.4.2.7.4.9h-.4ZM117.6,42.3h.2v.2h0v-.2h-.2ZM132.1,5.5h1.6v1.6c0,.2,0,.4-.2.6.5.5.3,1.1,0,1.1v.4l.2.2v4c0,.2,0,.8.1.9,0,0-.2.1-.2.2v.5c0,.2.1,0,0,.5.2.4.4.7,0,.9,0,0,0,.1.1.3v2c0,.2-.2.7.1,1v.5s-.2,0-.2.2v3.7c.4.4,0,1.1.1,1.5v7c0,.6,0,1.2.1,1.8v4c-.1.4-.2.8-.3,1.2h-.2c-.1,0-.2-.2-.4-.2h-.6s-.2.2-.2.4h0c-.1,0,0-.3-.3-.3h-1.3s0-.2-.1-.3v.2c-.3,0-1,.3-1.1.3s-.5-.2-.8-.3c-.2-.4-.2-.8-.1-1.3v-11.8s-.2-.3-.2-.5v-1.1c-.3-.2-.8-.1-1.2-.1h-2c-.1,0-.2,0-.3.2v8.7h0v.5h0v4.8c-.4.5,0,.5-.3.9h-2.3v-.2h-.3c-.2,0-.2.2-.4.2h-1.9v-.9h-.2v-1.1h0v-.3h0s.2,0,.2-.3-.2-.4-.2-.5v-2.8s.2-.3.2-.5-.2-.6-.3-.8v-.6c-.2-.5-.3-.9,0-1.5v-15.3s0-.1-.2-.2v-4.2s0-.2-.2-.3c.5-.4.2-.8.2-1.3v-3.5c.2,0,.5.4.6.4s.2,0,.4-.2h0s0,.3-.2.4c0,.3.3.2.5.3l.5.5c.3-.2,0,0,0-.3v-.2h.4c.2,0,0,0,0,0h.3c.3,0,.9.3,1,.4,0,0,.2-.2.2-.3h.2s0,.3.2.5c0,0,.2,0,.3-.3v.6h.3c-.2.5,0,1.1,0,1.6s-.2.3-.2.5.2.4.2.7v.5c0,.7.4,1.9,0,2.7h0v6.4h0c.2.1.4-.2.6-.4,0,0,.3.2.5.2s0,0,0,0l.4-.2h0s.2,0,.3.1h.6c0,.1,0,.2.2.2s.8-.2.8-.4v-8h0v-3.6c0-.5,0-.7.3-1.2,0,0-.2-.3-.2-.4h.5c0,0,.3-.2.5-.2,0,0,0-.3.2-.4v.4h1.3l.2.3c.2,0,.4-.3.6-.3s0,0,0,0h.4l.8-.3h.4ZM120.3,8v-.3h0v.3h0ZM120.8,32.2v.2s.5-.5.5-.7-.2-.3-.2-.4c-.2.1-.5.2-.7.3v.2l.2.4h.2ZM121.9,5.9h-1.3c.3,0,.5,0,.7-.4h.4v.3h2.4s.3.2.4.3v.2s-.2,0-.3-.2h-2.3v-.2ZM120.9,40.9c.4-.3.3-.3.5-.3h.3s0,.2-.3.3h-.5ZM121.1,11.6h0v-.2h0v.2ZM121.4,22.4v.2c0,.1.3.3.4.4h.3c0-.2-.2-.5-.2-.6h-.5ZM122,24.8c0-.3,0-.5-.2-.7h-.3c0,.1-.2.2-.2.4s.2.4.3.5c0,0,.3-.1.4-.1h0ZM121.8,40.8v-.9c0,.4.2.7.4.9h-.4ZM121.9,31.3h.2-.2ZM122.2,31h.6v-.2h-.6v.2ZM122.9,35.4s.2,0,.3-.2l-.2-.2s-.3.3-.3.4h.2ZM123,24.4h-.2c0-.1.2,0,.2,0ZM123.3,20.7s-.3-.1-.5,0c0,0,0,.3.3.3s.2-.2.2-.2h0ZM122.9,23.4h0v.3-.2h0ZM122.9,34.2h.2-.2ZM123.1,22.1v.3c.3,0,.4,0,.4-.2h-.4ZM123,31.2v.2h.4v-.2h-.4ZM123,22.8h0c0,.1.2.1.2.1h0c0-.1-.2-.1-.2-.1ZM123.1,38.3c.2,0,.3-.2.3-.4s0-.3-.2-.3v.2h0v.4h-.1ZM123.3,11.9l-.2.2v.4c.2,0,.4,0,.5.2h0v-.7h-.3ZM123.4,25.2v-.2h0v.2h0ZM123.5,31.8h0ZM123.7,23.5s.4-.4.4-.5v-.2c-.2,0-.4.1-.5.1,0,.2,0,.5.2.6h0ZM123.6,33.7v.2h.2v-.2h-.4.2ZM124,21.6v-.2c0-.2-.2-.3-.3-.3v.2c0,.2.2.3.4.3h0ZM123.9,42v-.9c0,.4.2.7.4.9h-.4ZM124.1,41.5v-.9c0,.4.2.7.4.9h-.4ZM124.4,22.3h0c0,.2.3.3.4.3h0v-.4h-.5,0ZM125.5,24.5c0-.1.3-.2.5-.2s.2,0,.3.2c0-.2,0-.4.2-.5h-.4c-.2,0-.4-.2-.4-.3,0,.7-.9,0-1,.7h.8ZM124.9,20h.2-.2ZM125.2,21.5h0ZM125.8,21.4c0,.1-.2.2-.2.4,0,.4.7.5.9.9h.6v-.3c0-.2-.3-.4-.5-.4s0,0,0,0c-.2,0-.5-.6-.5-.7h-.3ZM126,41.9s0-.2.2-.3l.4.2h0c0,.3-.5.4-.5.4h-.5s.3,0,.4-.2h0ZM126.3,23.3h0v-.2h0v.2ZM126.3,40.9h0v-.2h-.2l.2.2ZM126.3,39.9h0v-.2h-.2l.2.2ZM126.4,38.7v-.9c0,.4.2.7.4.9h-.4ZM126.9,21.1c.6,0,.5-.3,1-.6h0s0,.2-.3.2-.2,0-.3-.2c0,0-.4.3-.4.5v.3s0-.2,0-.2ZM126.8,24.3s.2.1.3.1.3-.2.4-.4h-.7s0,.3,0,.3ZM127.5,41.3h-.5v-.3s.3,0,.5.2h0ZM127.7,31.8c-.2,0-.4-.1-.6-.1v-.3h.3c.2,0,.3.1.4.2v.2s0,0-.1,0ZM127.3,38.4v-.2h.4v.3h-.5.1ZM127.8,34v.2h-.4v-.2h.4ZM127.8,41.6h.6c-.3.4-.6.5-.9.7,0,0,0-.6.2-.7h0ZM128,21.3h0l-.2-.2h0l.2.2ZM127.9,42.2v1.2c0-.2-.2-.5-.2-.7s0-.4.2-.5ZM128.5,24.1h-.5v.2c.1,0,.2.1.4.1s.1,0,.1,0v-.2h0ZM128.1,22.2h.4s-.2-.2-.3-.2v.2h0ZM128.3,42.6c.2,0,.4.3.6.3-.1.4-.2.3-.3.3s-.4-.3-.4-.4v-.2h0ZM128.4,22.8h0c0,.1.2.1.2.1h0c0-.1-.2-.1-.2-.1ZM128.6,40.1h-.2.2ZM128.9,20.7h-.2v.2-.2h.2ZM128.9,36.3h0ZM129.2,26h.2-.2ZM129.2,32h.4-.4ZM129.3,9.6h0c0,.1.3.1.3.1h0c0-.1-.3-.1-.3-.1ZM129.4,22.5s0-.1.1-.2h-.2v.3h0ZM129.5,10.4h.4-.4ZM129.7,19c.1,0,.2.1.4.1s.4-.1.5-.2v-.2h-.8v.3h0ZM129.8,29.7h.4c0-.1-.2-.3-.2-.4h-.2v.4ZM129.9,37.7s.2.3.3.3c0,0-.2-.3-.3-.3ZM131.2,36.1l-.2-.2s0,.3-.1.3h-.5c0,.2.1.4.3.4s.4,0,.5-.2v-.2h0ZM130.6,33.1h0ZM130.5,31v.4h.2v-.5h-.2ZM130.8,38.7c0-.3-.1-.5-.1-.6,0,0-.1.4,0,.6h.2,0ZM130.7,26.9h0v-.2h0v.2ZM130.7,8.4h0v-.2h0v.2ZM131,7.3v-.2h-.1v.2h.1ZM131.3,35.1c-.1,0-.2-.3-.3-.3v.7h.2v-.3h.1ZM131.1,32.2s.1-.2.2-.2c0,0-.1.2-.2.2ZM131.2,21.6h.6s0-.1-.1-.2h-.5v.2ZM131.3,42.6v-.9c0,.4.2.7.4.9h-.4ZM131.6,34.5h.2-.2ZM131.7,7.3h0v-.2h0v.2ZM131.9,35.7v-.4c-.1,0-.2.2-.2.3h.3-.1ZM131.6,37.4s.2.2.4.2.2-.2.2-.2c-.1,0-.3,0-.4-.2l-.2.2ZM132,40.7s0-.2.2-.3c0,0,.2,0,.4.2h0c0,.3-.5.4-.5.4h-.5s.3,0,.4-.2h0ZM131.7,13.8c0,.2.3.4.5.5-.1-.2-.4-.4-.5-.5ZM132.1,39.6h.3v-.5c-.2.2-.4.4-.5.5h.2ZM132,42.9v-.2h.4v.3h-.5.1ZM132.1,39.6h.2-.2ZM132.6,35.5s0-.2.1-.3h-.5c0,.3,0,.5.3.7h.4v-.3s0-.2-.1-.3c0,0-.2.2-.3.2h-.1.2ZM132.8,22.2h0c0-.1-.2,0-.2,0,0,0,0,.2.2.2v-.3h0ZM132.8,41.2v-.9c0,.4.2.7.4.9h-.4ZM135.5,24c-.1.2-.4.3-.6,0h.6ZM137.1,1.5c-.1-.2,0-.3-.3-.3.1-.2.3-.3.5-.5,0,0,.1.1.1.2,0,.2-.3.3-.3.5h0Z"/>
  <path class="st0" d="M137.7,17.8c0,.3,0,.4.2.9,0,.1.2.3.3.4v4c0,.8-.1,1.6-.6,2.4v-3.6c.2-.2.1,0,0,0v-4h.1ZM137.7,39.6v-4.4c0,.2.2.5.3.8,0,1,.4,1.4.2,2h0v.6c0,.2.3.6.3.8v.2s-.8,0-.8,0ZM138.2,25.7c.1-.2.3-.3.5-.5,0,0,.1.1.1.2,0,.2-.3.3-.3.5h0c-.1-.1,0-.3-.3-.3h0ZM138.2,29.2s0-.1.2-.1h.2v.3h-.5v-.3h.1ZM138.6,25.1v-.9c0,.4.2.7.4.9h-.4ZM138.7,16.6c.1-.2.3-.3.5-.5,0,0,.1.1.1.2,0,.2-.3.3-.3.5h0c-.1-.1,0-.3-.3-.3h0ZM138.7,17.6v-.9c0,.4.2.7.4.9h-.4ZM139.2,40.4h-.3c0-.2,0-.5.2-.5h.2v.4h0ZM139.6,25.5s0-.1.1-.1,0,.1,0,.2h-.1ZM140.1,28.2s.2,0,.3.2v.3c-.1,0-.3-.2-.4-.3h.1v-.2h0ZM140,27.3v-.4h.3v.5c-.1,0-.3-.1-.3-.1ZM140.2,29.2v1.2c0-.2-.2-.6-.2-.7s0-.4.2-.5ZM140.4,34.7h-.2c0-.3-.1-.7-.1-.8,0-.2.1-.4.3-.6.3-.3-.1,0-.2,0v-1.1.5s.2,0,.3.2v1.3h-.2.3v.5c0,.2-.2.3-.3.4h0s.1-.2.2-.3h-.1ZM140.5,26.4h.3s-.1.2-.3.3h-.5c.4-.3.3-.4.5-.4h0ZM140.2,31.5v-.9c0,.4.2.7.4.9h-.4ZM140.2,35.6v-.9c0,.4.2.7.4.9h-.4ZM140.4,36.6v-.9c0,.4.2.7.4.9h-.4ZM140.4,37.2v-.9c0,.4.2.7.4.9h-.4ZM140.6,38h.2v.4h-.4v-.2h.2v-.2ZM140.7,40v-.9c0,.4.2.7.4.9h-.4ZM140.9.5V-.4c0,.4.2.7.4.9,0,0-.4,0-.4,0ZM141.9,20c0-.1-.1-1.2-.2-1.9v-.6h0v-1.8s.2-.2.2-.3v-1.1c0-.1.2-.3.2-.5,0-.4-.2-.8-.4-1.1.1-.1.3-.2.4-.3v-.4c0-.1.2-.3.2-.4,0-.3-.2-.2-.4-.5v-.3h.5c.2-.4.2-1,0-1.5.1-.2.6-.4.9-.8v-.7s.4-.2.5-.3c.2-.2.3-.5.5-.7h-.2v-.3c.3-.2.8-.5,1-.5h.4c.1,0,.3-.3,0-.5h.3v.2h.2c.4,0,.3-.4.3-.6h.3c.1,0,.3.2.5.2s.3,0,.5-.2h.6c.2,0,2.8.2,3,.2h.6c.1,0,.2.3.3.5.9,0,1.5.7,2,1.3.1,0,.2.5.2.6s.3.3.4.4c.2.3.5.6.6,1,.3.7.5,1.6.8,2.4v.3c0,.2.2.5.2.6v3.3c-.1.2-.3.4-.4.5h.3c.2,2.4,0,2.9,0,3.3v.6c-.2.1-.5.3-.6.5.2.1.5.1.7.2v4c0,.2-.2.4-.2.5v.8s.1.2.1.3c.1.2.2.6.2.7v.8c0,.2-.2.4-.2.6s.2.2.2.4c0,0-.2.3-.2.4s.1.2.2.3v.9c-.2.2-.6.3-.7.3s-.5-.4-.6-.4-.3.1-.5.2c0,.3.3.2.5.3,0,0,.3.4.5.5v.6h.3c.1-.3.1-.6.3-.9.2,0,.3.4.3.5s-.1.4-.2.6c0,.2,0,.5-.2.6,0,0,.1.3.1.4s-.2.3-.3.4c0,0,.2.3.2.5,0,.3-.2.7-.2,1h-.1c-.1,0-.4-.3-.6-.4h-.1v.3s-.1.3-.1.4.3.2.3.4-.6,1.2-1,1.7c-.2.3-1,.7-.7,1-.3.2-.8.6-1.2.7h-.4c-.1,0-.3,0-.4.2-.6,0-1.9.2-2,.2h-.8c-.3,0-.8,0-1.2-.2-.3,0-.9,0-1.2-.3-1.1-.5-2.3-1.3-2.8-2.5,0,0-.1-.2-.2-.2,0-.2-.3-.5-.4-.8v-.5c-.1-.3-.3-.6-.4-1v-.8c0-.2-.1-.2-.2-.3,0-.2,0-.5.1-.7,0,0-.1-.2-.2-.3v-3.9c.2-.3,0-1,0-1.2,0-.4,0-1-.4-1.5v-.3c.2-.1.5,0,.5-.3v-1s0-.2-.2-.3c0,0,.2-.2.2-.3v-3l-.5-.2h0ZM143.4,22.2v.3-.3ZM144,24.7v.2-.2ZM144.8,34.8h.1c.4,0,.7-.5.7-.8s-.2-.3-.3-.5v-.4h-.2c-.3,0-1,.5-1,1.1.3,0,.5.4.6.5h0ZM145.8,37.2h.2-.2ZM145.8,48.2v-.9c0,.4.2.7.4.9h-.4ZM146.5,37.1v-.2h-.2c0,.2.2.2.2.2ZM146.3.2c.1-.1.5-.3.6-.3.3,0,.5.3.5.4s-.5.2-.5.2c0,0-.4-.2-.6-.3ZM147.4,33.4c.3,0,.5.2.7.4v.5s-.2,0-.2.2h.2v-.2h.2c.2.2.3.4.4.5h1.2c.3-.3.7-.6.8-.9.3-1.3,0-2.1,0-3.2v-2.9c0-.2.1-.1.1-.3s-.1-.2-.1-.4v-13.7c0-.4.2-1,.2-1.1v-1.2c0-.2-.2-.4-.4-.5,0-.2.2-.5,0-.8-.2-.2-1.2-.9-1.7-.9-1.2,0-1.8,1.4-1.8,2.4s0,.4,0,.5v2.2c0,2.1.3,4.3.3,6.5s.1.6.1.9v.5c0,.3.1.8.1,1.1v3.8l.2,3.5v2.6h-.5v.2l.2.2h0ZM146.9,8.6v.4c.1,0,.3,0,.4-.1v-.2h-.4ZM147.9.5V-.4c0,.4.2.7.4.9,0,0-.4,0-.4,0ZM148.6,1.1c-.1,0-.5,0-.5-.3s0-.1,0-.2h.4s.3,0,.5.2h0c0,.1-.2.1-.2.1l-.2.2ZM150.7,35.9h-.3c-.3,0-.5.2-.8.5h1.2v-.3h0v-.2ZM150.2,38.2h-.3c-.3,0-.3.2-.3.3.1,0,.2.2.4.2h.2v-.3h0v-.2ZM150.3,36.9h-.2c-.1,0-.2,0-.2.3v.2h.4v-.5ZM150.8,9s-.2-.1-.3-.1v.2h.3ZM151.2,8.2s-.2-.1-.3-.2c0,0-.2.3,0,.4h.2v-.2h.1ZM150.9.5V-.4c0,.4.2.7.4.9,0,0-.4,0-.4,0ZM151.8,9.8c-.1-.1-.2-.3-.3-.4-.1.2-.4.4-.4.5,0,0,.2.2.3.2s.3-.2.4-.4h0ZM151.4,1.1V.2c0,.4.2.7.4.9h-.4ZM151.5.5s.3-.3.5-.4v.4h.5c.2,0,.4-.4.5-.4v-.4c.1,0,.5,0,.5.2-.2.3-.4.3-.5.4,0,0,0,.2-.2.3h-.5c-.3.2,0,.5-.2.5-.5,0-.4-.5-.6-.6ZM151.8-.3c.1-.2.3-.3.5-.5,0,0,.1.1.1.2,0,.2-.3.3-.3.5h0c-.1,0,0-.3-.3-.3h0ZM152.1,21.4c.1,0,.2-.1.2-.1v-.2s-.2-.1-.3-.1-.2,0-.2.2,0,.2.2.3h.1ZM152.3,8.6c-.1,0-.3.2-.3.3h.4v-.3h0ZM154.1,25.1h-1.1c-.1,0-.4.2-.6.4h-.2v-.3.8c0-.1.5-.2.8-.2h.4s.5-.1.6-.2v-.5h.1ZM152.3,24.6s0-.2.2-.2h-.2v.3h0ZM152.3,27.3v.3h.2s-.1,0-.2-.2h0ZM153.4,23.5c-.4-.1-.8-.1-1.1-.3v.3s.1-.1.2-.2c.1.2.3.6.6.6s.3-.1.4-.2v-.2h0ZM152.4,18.3v.4s.2,0,.2-.1-.2-.3-.2-.3ZM152.4,16.4c.2,0,.4,0,.6.1v-.2c-.1-.1-.2-.2-.4-.2s-.3,0-.3.1h0v.2h0ZM153,17c-.2,0-.4.2-.6.4v.2s.1,0,.2.2c.1,0,.4-.2.5-.4v-.4h0ZM152.9,34.1c.1.2.5.4.7.4s.7-.4.7-.6c-.4-.5-.9-.6-1.1-.7,0,0,0-.3-.2-.4h-.1c-.4,0-.3.5-.4.7,0,0,.2.2.3.3,0,0,0,.3.1.3ZM152.9,20.6c.1,0,.6-.3.9-.4-.4-.2-.8-.5-1-.7,0,0-.2,0-.2.1v.8c.1,0,.3.1.4.1h0ZM152.5,22.4c.3,0,.6-.1.8-.2h-.3c-.2,0-.4.3-.5.3h0ZM153.6,11.8c-.1-.1-.3-.2-.5-.2v.3s-.4.3-.4.4,0,.2.1.2h.4c.1,0,.3-.1.4-.2v-.5ZM153.1,37.8v-.4h-.2s-.2,0-.2.2,0,.2.2.2h.3-.1ZM153.8,21c0-.1,0-.2-.1-.2-.1,0-.6,0-.7.3,0,0,.2.2.3.2s.5,0,.5-.3ZM153.4,36.4l.2-.2s0-.3-.1-.4c-.1,0-.3,0-.3.3s.2.2.3.3h0ZM153.2,30.7s.2-.2.2-.3h-.2v.3ZM153.2,26.5h.3c0-.1-.3-.1-.3-.1h0ZM153.8,19.4s.1-.2.1-.3c-.4-.2-.1-.6-.4-.9,0,0-.2,0-.3.1v.4c0,.1.2.5.5.6h0ZM153.8,26.8c-.1,0-.3.2-.4.2h.5v-.2h-.1ZM153.6,37.4h-.2l.2.2v-.3h0ZM153.9,16.4h-.3s.2,0,.2.1h0c0-.1.1-.1.1-.1ZM153.7,15.8h.3-.3ZM153.9,23.2h-.2c0-.1,0,.3,0,.3.2,0,.2-.2.2-.2h0ZM154,.7V-.2c0,.4.2.7.4.9h-.4ZM154.2,13c0-.1-.2-.2-.2-.2v.3h.2ZM154,21.9h.3c0-.2-.3-.3-.3-.3v.3ZM154.5,16.9h-.1v.3h.1v-.3ZM154.9,28.6c.1,0,.3,0,.3-.2v-.2h-.3c-.1,0-.4,0-.6.2v.8h.3c.2,0,.5,0,.7-.2,0,.1.3.3.4.3v-.5h-.2c-.1,0-.3.2-.4.3,0,0-.2,0-.3-.1v-.4h.1ZM154.5,29.6h.3c-.1-.1-.4-.3-.5-.4v.2h.1v.2h0ZM154.5,18.9c.2,0,0-.3,0-.3v.3ZM154.8,17.1c0,.2-.2.4-.2.5h.3v-.5h-.1ZM155.2,26.2h0v.9c-.2-.3,0-.4-.4-.5-.1.2-.2.5-.1.7.2,0,.5,0,.8.2,0,.2-.1.5-.1.6h.5v-.2c0-.2-.3-.3-.3-.5s.3-.5.3-.6-.2-.4-.2-.6h-.5ZM154.8,21.4c0,.1,0,.3.1.4h.2v-.4h-.3ZM155,25.5h.6s.1-.2.1-.4c-.1,0-.3-.1-.4-.1s-.4,0-.4.3,0,.1,0,.2h0ZM155.4,32.8c-.2,0-.4.2-.5.3h.6v-.3h-.1ZM155.1,34.1h.4c.1,0,.2-.4.2-.5v-.2h-.7s.2.2.2.4v.3h0ZM155.4,24.5s-.2-.1-.3-.1v.4c.2,0,.3-.2.3-.3ZM155.4,24.1s.1-.2.2-.3l-.3-.2v.2c0,.1,0,.2.2.3h0ZM155.8,22h-.1c-.2,0-.4.6-.4.6,0,.2.1.1.2.1.1-.3,0-.5.3-.7ZM155.9,23.1v-.2s-.2-.2-.3-.2v.2s.2,0,.2.1h.1ZM155.9,32.5h0ZM156.1,20.6s0-.1.1-.1,0,.1,0,.2h-.1ZM156.4,18.7c.3,0,.6.2,1,.4,0,0-.5.4-.1.6h-.6s.1-.2.3-.4c0-.4-.5-.2-.6-.2,0,0,.1-.2.2-.3h-.2,0ZM156.2,22.2v-.9c0,.4.2.7.4.9h-.4ZM156.2,22.7c.1-.2.3-.3.5-.5,0,0,.1.1.1.2,0,.2-.3.3-.3.5h0c-.1-.1,0-.3-.3-.3h0ZM156.2,23.5v-.9c0,.4.2.7.4.9h-.4ZM156.2,24.1v-.9c0,.4.2.7.4.9h-.4ZM156.3,25.2c.1-.2.3-.3.5-.5,0,0,.1.1.1.2,0,.2-.3.3-.3.5h0c-.1-.1,0-.3-.3-.3h0ZM156.3,27.9c.1-.2.3-.3.5-.5,0,0,.1.1.1.2,0,.2-.3.3-.3.5h0c-.1-.1,0-.3-.3-.3h0ZM156.4,27.4h0c0,.1,0,0,0-.1h0ZM156.3,26.1s0-.1.2-.1h.2v.3h-.5v-.3h.1ZM156.3,27.2v-.9c0,.4.2.7.4.9h-.4ZM156.4,32h.2v.2h-.1v-.2h0ZM156.4,24.4v-.4h.3v.5c-.1,0-.3-.1-.3-.1ZM156.4,31.9l.2-.4s.4.3.4.5h-.6,0ZM156.5,18.2c.1-.2.3-.3.5-.5,0,0,.1.1.1.2,0,.2-.3.3-.3.5h0c-.1-.1,0-.3-.3-.3h0ZM156.6,26v-.9c0,.4.2.7.4.9h-.4ZM156.7,28.5v-.9c0,.4.2.7.4.9h-.4ZM156.8,22.1v-.9c0,.4.2.7.4.9h-.4ZM157.9,26.5v-.3c-.2,0-.4,0-.7.2.2.1.4.3.5.3h.1c.1,0,.3.3.5.5-.1.1-.4.4-.5.5-.2,0-.3,0-.4-.2.1,0,.3-.1.4-.2v-.2c-.3-.2-.8-.2-1.1-.3v-.2c.2-.2.5-.5.5-.7,0,0,.3-.2.4-.3,0-.1-.3-.3-.4-.5.5,0,.6.2.9.5-.1,0-.3.2-.4.3.1.2.3.2.5.4v.2h-.4,0ZM156.8,30.1v-.9c0,.4.2.7.4.9h-.4ZM156.8,34.3c.1-.2.3-.3.5-.5,0,0,.1,0,.1.2s-.3.3-.3.6h0c-.1,0,0-.3-.3-.3ZM157.7,22.8c0,.1,0,.4.1.5-.8.2-.6-.5-.9-.9h.2c.2,0,.3-.3.5-.3s0,0,.1,0h.1c-.2-.4-.5-.6-.5-.6h-.4v-.7c.2-.1.4-.3.7-.5v-.2h-.2c0-.1.4-.3.5-.3h.2c.2,0,.3-.4.3-.5.1,0,.5,0,.5.3v.4h-.7c0,.2.2.3.3.4-.1,0-.4,0-.4.2s.3.3.3.4c0,0-.2.1-.2.3s.1,0,.1.1,0,.4.3.4c-.2,0-.3.3-.5.4-.1,0-.4.1-.6.2h0c0,.2.1.2.3.2h0v.2h-.1ZM156.9,27.3h.4-.4ZM156.9,35.3v-.9c0,.4.2.7.4.9h-.4ZM157.1,36h.2-.2ZM157.1,32.7v-.9c0,.4.2.7.4.9h-.4ZM157.6,29.4h-.4c.2,0,.2-.3.3-.6,0,0,.1.1.1.2v.3h0ZM157.4,30h-.2v-.3h.2v.3ZM157.2,30.9s.2,0,.3-.2c.1.2.1.5,0,.6-.1,0-.3-.3-.3-.4ZM157.3,18.4v-.2s.1-.1.2-.1.4.3.5.5c0,0-.2.1-.3.1s-.1-.2-.4-.2h0ZM157.5,20.3v1.2c0-.2-.2-.5-.2-.7s0-.4.2-.5ZM158.2,19.8s-.2,0-.4.2l-.4-.4c.1-.1.3-.5.3-.6l.4.3v.5h0ZM157.5,36.6v-.9c0,.4.2.7.4.9h-.4ZM158.9,23.4c-.6,0-.5-.5-1.1-.5h.5c.1,0,.3-.1.3-.3,0,.2.3.4,0,.6,0,0,.2.2.3.2ZM158.1,17.5v-.9c0,.4.2.7.4.9h-.4ZM158.1,24.9v-.9c0,.4.2.7.4.9h-.4ZM158.3,18.8h0s0-.2.1-.2h0c0,.1-.1.1-.2.1h0ZM158.3,24.5v-.9c0,.4.2.7.4.9h-.4ZM158.8,21.5c.2,0,.2.3.3.5h-.5c0-.1.2-.3.3-.4h-.1ZM158.7,20.5l.4.5v.2c-.1,0-.5-.5-.5-.5v-.2h.1ZM158.6,25.6h.4c0,.1.3.3.3.5,0,0-.2,0-.3-.2h-.5v-.2h.1ZM158.6,27.1v-.9c0,.4.2.7.4.9h-.4ZM158.8,28.1v1.2c0-.2-.2-.5-.2-.7s0-.4.2-.5ZM158.7,24.3h.3s-.2.2-.2.3v-.3h-.1ZM158.8,19.3h0c0,.1,0,0,0-.1h0ZM158.7,28v-.9c0,.4.2.7.4.9h-.4ZM159,18.9v-.9c0,.4.2.7.4.9h-.4ZM159,20.4c.1-.2.3-.3.5-.5,0,0,.1.1.1.2,0,.2-.3.3-.3.5h0c-.1-.1,0-.3-.3-.3h0ZM159,22.7c.1-.1.5-.3.6-.3.3,0,.6.3.6.4s-.5.2-.6.2-.4-.2-.6-.3ZM159.1,23.6v-.9c0,.4.2.7.4.9h-.4ZM159.3,19.6v-.9c0,.4.2.7.4.9h-.4ZM159.3,23.4v-.9c0,.4.2.7.4.9h-.4ZM159.4,15.8v-.9c0,.4.2.7.4.9h-.4ZM159.4,16.5c.1-.2.3-.3.5-.5,0,0,.1.1.1.2,0,.2-.3.3-.3.5h0c-.1-.1,0-.3-.3-.3h0ZM159.4,21v-.9c0,.4.2.7.4.9h-.4ZM159.9,19.4v-.9c0,.4.2.7.4.9h-.4ZM160.6,25.5v-.9c0,.4.2.7.4.9h-.4ZM160.7,23.5v-.9c0,.4.2.7.4.9h-.4ZM160.7,1.7v-.9c0,.4.2.7.4.9h-.4ZM162.7,35.9c-.1,0-.1.4-.5.4s-.4-.3-.7-.6l.8-.2.3.3h0Z"/>
  <path class="st0" d="M160.6,36v-.9c0,.4.2.7.4.9h-.4ZM163.1,14.8h-.5c0,.4.2.6.4.8h-.4v-.8h-.3v-.2s0-.1.2-.1h.2c0,.1.2.1.3.1h.3l-.2.2ZM164.2,39.3v.3c-.1,0-.1-.2,0-.3ZM164.5,12.4h-.2c0-.1.1-.5.1-.5h.2v.5h-.1ZM166,35.2c0-.2-.1-1-.1-1.1s.3-.2.3-.4-.2-.2-.3-.4v-4.3c.3-.1.4-.4.4-.5v-2.5s-.1-.2-.2-.4c-.1-.6.2-.4.2-.6v-7.9h0v-.6c-.1,0-.2,0-.2-.1h0c0-.1.1-.4.1-.4h0c0-.5.2-1.2,0-1.7,0-.2-.2-.4-.2-.6s.1-.3.2-.5V4.5c.3,0,.8-.3,1-.3s1.8.3,2,.3h2.4v13.3c0,.1-.2.4-.2.5s.2.3.2.4-.2.4-.2.6v.7c0,.2-.2.9-.2,1,0,.5.4.3.6.6,0,.2-.3.2-.5.4v3.6c.1.2.2.2.4.5v.5c0,.1.2.4.2.5,0,.3-.6.2,0,1.4-.1.2-.5.6-.5.8s.2.5.1.9v.8c0,.1.2.2.4.2,0,.2.1.6.1.8s0,0,0,0l-.3.5v.2c0,.2.4.4.5.3,0,0,0,.2-.1.2.1,0,.2.3.3.4h0c-.4,0-.1-.4-.5-.4s-.2.2-.2.3c0,.2,0,.4.4.5h5.2l1.1.2v4.9l-2.2.2c-.1,0-1.3-.2-2-.2s-.6,0-.5.2l-1.3-.2c-.2,0-.7.2-.7.2h-.3c0-.2,0,0-.2,0h-.8c-.2,0-1.1.2-1.3.2h-2.3c-.1-.5-.2-1-.2-1.5,0,0-.2-.2-.3-.2v-.3h.5v-2.5h-.8v.2ZM169.3,29.2c0-.2-.5-.4-.5-.4-.2,0-.5.5-.5.7s0,.4.5.4.6-.4.6-.7h-.1ZM169,34.9h-.3v.3h.4v-.3h0ZM171.5,40.9v-.9c0,.4.2.7.4.9h-.4ZM171.7,35.4v.2h.4-.4v-.2ZM172.6,40.5s0,.2-.2.2v-.3h.2ZM173.5,36.6h-.2v.4h0v-.2h.2v-.2ZM174.2,36.7h.1v-.2h-.3q-.1,0-.2.2h.4ZM174.8,11.3l.2-.4s.4.3.4.5h-.6,0ZM175,10.2h.1v.4h-.2v-.6h0v.2h0ZM175.3,38.2s.6,0,.6-.4-.2-.4-.4-.4c0,0-.5,0-.5.4s0,.4.4.4h-.1ZM175.5,36.8v-.2h-.2c0,0,.2,0,.2,0h0ZM175.6,13.1h-.2c0-.1.1-.5.1-.5h.2v.5h-.1ZM175.9,40.5h-.1.1v-.2h0v.2ZM180.1,18.2c-.1-.2,0-.3-.3-.3.1-.2.3-.3.5-.5,0,0,.1.1.1.2,0,.2-.3.3-.3.5h0ZM181.5,15.2v-.9c0,.4.2.7.4.9h-.4ZM181.7,1.4h-.1c0,.1.1.1.1.1v-.2h0ZM183,39.7v.2c-.1,0-.1-.2,0-.2ZM182.9,12.7s0-.3.2-.4c.1.1,0,.4-.2.4Z"/>
  <path class="st0" d="M181,17.8h0v-5.1c0,.1.3.5.3.7v4.3h-.3ZM182.8,38.3v-.2c.1,0,.5.5.5.5v.2c-.1,0-.5-.5-.5-.5ZM182.8,39.8l.5.2v.2l-.5-.2v-.2ZM183.1,23.1c0-.1.1-.2.3-.2,0,0-.1,0-.1.2h-.2ZM184.5,34.6v-8.5c0-.2,0-.6-.1-1v-.2h0c0-.5-.2-1.5-.2-1.6V7.2s0-.8.1-1.1c0,0,.4-.2.5-.2s3.3.4,3.4.4h4.2s.3.2.5.2c.4,0,1,.2,1.5.3.2,0,.6,0,.8.2.3.2.5.5.9.7,0,0,.4,0,.5.2.2,0,.3.5.4.6.2.4.6.6.9,1v.7c.1.4.4.8.5,1.2.1.8,0,1.6,0,2.2v9.6s.1,0,.1.2v7.1c0,.3.2.8.2,1s0,.7-.1,2.5c0,.2-.2.6-.3.9l-.2.2v.7c-.2.3-.5.7-.6,1.1,0,0-.4.4-.5.5,0,0,0,.2-.2.3-.5.5-.7.4-1,.5,0,0-.3,0-.5.2-.2,0-.6,0-.9.2-.6.4-.8.5-1,.6h-.5l-7.5.2c-.1,0-.7,0-.9-.3-.2-.4.1-1,0-1.9v-1.8c0-.2-.1-.4-.1-.6h.1v-.2ZM189.1-.9h0s0-.2.1-.2h0c0,.1-.1.1-.2.1h0ZM193.7,19.5h0v-1.3c-.1-.7-.1-1.7-.1-2.4v-2.7c0-.4-.3-.8-.5-1.1,0,0-.1,0-.2-.1-.2-.7-1-1.1-1.6-1.2h-.5c-.7,0-1,0-1,.7v5.1c0,.2.2,2.2.2,3.2s-.1.8,0,1.2c0,.2.2.4.2.5s-.1.7-.2,1v3.4c0,.4-.3,1.1-.3,1.2s.3.6.3.7v4.4c0,.2.1.4.1.5,0,.2-.6,2.2.5,2.2s1.1-.2,1.7-.4c.1,0,.4-.2.5-.3.1-.2.2-.5.4-.7s0,0,.1-.2l.3-.3v-.2c.1,0,.1-13.1.1-13.1h0ZM190.1-.4c.2,0,.3,0,.4.3h-.5v-.2h.1ZM192.4-.5c0-.1,0-.2.1-.2s.3.1.3.3,0,0-.2,0h-.2ZM194.1,8.6c0-.3-.1-.3-.4-.3h-.2c-.2.1-.5,0-.5-.2s.2-.4.3-.5h-.3c0,.2-.3.4-.5.5.4.8.1,1.2.9,1.2s.7,0,.7-.5v-.2ZM193.8,19.5h0c0-.1,0-.2.1-.1h-.1ZM194.3,22.2l-.3-.2v.4h.3s0-.2,0-.2ZM194,25h.1-.1ZM194.6,24.4s.4-.1.4-.4-.2-.3-.5-.4c-.1.1-.2.3-.2.4s.2.4.3.4ZM194.4,42v.2-.2ZM194.7,17.7h-.3s.1.1.2.1,0-.2,0-.2h.1ZM194.5,32.8c.1,0,.2-.2.2-.2h-.2v.2ZM195.1,21.9v-.5c0,0,0-.1-.1-.2-.1-.1-.1.2-.3.2s0,0-.1,0c0,.3,0,.5.4.7h.1v-.2h0ZM194.6,43.1h0s0-.2.1-.2h-.2v.2ZM194.9,1.5h0s0-.2.1-.2h0c0,.1-.1.1-.2.1h0ZM195.8,24v-.2s-.2-.2-.3-.2c0,0-.2-.8-.6-.8s0,0-.1,0c0,.1.2.1.2.3h0c0,.4.2.9.5.9h.3ZM195.1,32.5v.2h0v-.2ZM195.3,18.9h.2s.1-.2.2-.2h0c0-.1-.2-.1-.2-.1,0,0-.2.1-.2.2h0ZM195.3,25h0ZM195.6,26.6s.1-.1.1-.2h-.3s0,.1.2.1h0ZM195.4,30.4h0v.3c.1,0,.2-.1.3-.2,0,0-.1-.1-.2-.1,0,0-.1,0-.1,0ZM195.4,43.5v-.2h.4v.3h-.5.1ZM195.7,15.6h0v-.2h0v.2ZM196.6,18.9s-.2-.2-.3-.3c0,0,0-.2-.1-.3h-.2s-.2.2-.3.3c.3,0,.5.3.5.5,0,0,.4,0,.4-.3h0ZM196.4,31.5c-.1-.1-.3-.4-.5-.5,0,.1-.1.4-.1.5s.2.3.3.2c0,0,.2-.2.3-.2ZM195.9,25.4v.5h.2s.1,0,.1-.1v-.3h-.3ZM196.2,21.9c.1-.1.2-.3.2-.4h-.2c-.1,0-.2,0-.2.2s.1.2.2.2ZM196.7,30h0c0-.2-.1-.2-.2-.2h0c0-.2,0-.3-.2-.3,0,0-.1.2-.1.4s.1.2.2.3h.4v-.2h0ZM196.2,27.3c0,.1,0,.2.1.3h0s.1,0,.1-.2,0-.1-.1-.2h-.2,0ZM196.5,26.5v-.4h-.2s.1.2.2.3h0ZM197,33.3s0-.3-.2-.3h-.3s-.1,0-.1.2.1.4.3.4h.3v-.2h0ZM196.5,25h0c0-.1.1,0,.1,0h-.1ZM196.4,24.6h.3-.3ZM196.5,33.8h.2-.2ZM197.1,27.4h0c0-.2-.1-.4-.2-.5h-.2c0,.1,0,.4-.1.5h.5ZM197.1,16c.2,0,.5-.1.5-.5v-.5c-.2,0-.4.1-.6.1,0,.2-.3.4-.3.5,0,.3.3.4.4.4h0ZM196.7,24.5h.2v-.4c-.1,0-.3,0-.3.2h0v.2h.1ZM197,29.5c0,.2.2.3.3.4h.1c0-.2.2-.5.2-.6s-.1,0-.1-.1c0-.5-.1-.9-.1-1.2h-.3c0,.2.1.3.1.5s-.1.3-.1.4v.7h0ZM197.2-.6h.2v.2h-.1v-.2h0ZM197.4,34.9h-.2.3v-.2h-.1v.2ZM197.6,17.3h-.2c0-.1-.1-.1-.1-.1,0,.2,0,.3.1.4,0,0,.2-.2.2-.3ZM197.3-1.5s.2-.3.3-.4h.2v.4h-.5ZM197.5,30.5v-.3h0v.3h0ZM197.6,29.1h.2c0,.1-.2,0-.2,0ZM197.9,18.6s.1-.1.2-.2v-.2s-.2,0-.3.2c0,.1.1.2.2.2h0ZM197.9,18.9s-.1.2-.1.3.1.2.2.2v-.5h0ZM198.2,21.1h-.2c-.1,0-.2.1-.2.2,0,0,0,.2.3.2s0,0,.1,0v-.3h0ZM197.8,28.4h.2c.2,0,.3,0,.3-.2s-.1-.4-.4-.4,0,0-.1,0v.6ZM198.2,42.5h0s0-.2.1-.2h-.2v.2ZM198.3,39.1s.1-.2.2,0h.1v.3h-.3v-.3h0ZM198.9,22.1v.2s-.2,0-.3-.2h.3ZM198.9,26.8h0v-.2.2ZM199.9,41.1h0s0-.2.1-.2h-.2v.2ZM199.9,37.3c0-.2,0-.3.3-.6h.5s.2.3.2.5c0,.4-.2.9-.5.9s-.5-.8-.5-.8ZM200.6,40.8v-.3h.6c0,.2,0,.5-.2.7l-.4-.3h0ZM201.7,46.4h0s0-.2.1-.2h-.2v.2ZM209.2,9c0-.1.1-.3.3-.4v.4h-.3Z"/>
</svg>