<?xml version="1.0" encoding="UTF-8"?>
<svg id="Layer_2" xmlns="http://www.w3.org/2000/svg" version="1.1" viewBox="0 0 29.59 9.91">
  <!-- Generator: Adobe Illustrator 29.1.0, SVG Export Plug-In . SVG Version: 2.1.0 Build 142)  -->
  <defs>
    <style>
      .st0 {
        fill: #a63f78;
      }
    </style>
  </defs>
  <g>
    <path class="st0" d="M6.88,1.82h1.95c.08,0,.14.06.11.15l-1.59,5.73c-.03.09-.09.14-.19.14h-1.52c-.11,0-.18-.05-.2-.14l-.8-3.07-.79,3.07c-.02.09-.09.14-.2.14h-1.52c-.1,0-.16-.05-.19-.14L.37,1.96c-.02-.08.02-.14.1-.15h1.95c.11,0,.18.05.2.15l.5,2.61.67-2.61c.03-.1.11-.15.24-.15h1.26c.13,0,.2.05.23.15l.67,2.61.49-2.61c.02-.1.09-.15.2-.15Z"/>
    <path class="st0" d="M9.48,1.51h1.54c.07,0,.13.06.13.13v1.76c.25-.33.63-.49,1.14-.49,1.02,0,1.65.59,1.65,1.61v3.18c0,.06-.06.13-.13.13h-1.53c-.07,0-.14-.06-.12-.13v-2.74c0-.37-.14-.55-.43-.55s-.49.21-.54.37l-.03.12v2.8c0,.06-.07.13-.13.13h-1.54c-.07,0-.13-.06-.13-.13V1.64c0-.07.06-.14.13-.13h0Z"/>
    <path class="st0" d="M14.84,3.04h1.53c.07,0,.13.06.13.12v4.54c0,.06-.07.13-.13.13h-1.53c-.07,0-.13-.06-.13-.13V3.16c0-.06.06-.12.13-.12Z"/>
    <path class="st0" d="M20.02,3.04h.23c.08,0,.12.04.12.12v1.14c0,.08-.04.12-.12.12h-.23c-.32,0-.63.14-.74.37v2.92c0,.07-.06.13-.13.13h-1.54c-.07,0-.13-.06-.13-.13V3.16c0-.06.06-.12.13-.12h.99c.05,0,.1.04.14.13l.13.39c.29-.35.67-.52,1.15-.52Z"/>
    <path class="st0" d="M20.98,1.51h1.54c.07,0,.13.06.13.12v6.07c0,.06-.07.13-.13.13h-1.54c-.07,0-.13-.06-.13-.13V1.63c0-.06.06-.13.13-.12Z"/>
    <path class="st0" d="M23.41,1.82h.93c.1,0,.14.05.12.16l-.38,1.17c-.05.14-.12.22-.22.23l-.58.12c-.13.03-.19,0-.17-.08l.1-1.39c.01-.14.08-.22.21-.22Z"/>
    <path class="st0" d="M27.57,1.51h1.54c.07,0,.13.06.13.12v6.07c0,.06-.06.13-.13.13h-.99c-.05,0-.1-.04-.14-.13l-.13-.31c-.37.38-.88.57-1.53.57-1.31,0-2.24-1.02-2.24-2.53s.91-2.52,2.3-2.52c.43,0,.78.11,1.06.33v-1.61c0-.06.06-.13.13-.12ZM26.76,4.41c-.48,0-.8.41-.8,1.03s.32,1.04.8,1.04c.3,0,.58-.19.68-.48v-1.1c-.1-.29-.38-.48-.68-.48Z"/>
  </g>
  <g>
    <path class="st0" d="M4.33,9.54c.02.11.15.21.31.21.18,0,.29-.09.29-.21,0-.11-.09-.17-.2-.21l-.2-.07c-.27-.09-.31-.24-.31-.36,0-.23.21-.37.44-.37.24,0,.4.13.44.32l-.17.05c-.03-.14-.13-.2-.27-.2-.13,0-.24.07-.24.2,0,.06.02.13.18.19l.21.08c.22.07.33.22.33.36,0,.24-.19.39-.47.39s-.45-.15-.5-.34l.18-.05Z"/>
    <path class="st0" d="M6.06,9.36c0-.21-.1-.28-.2-.28s-.28.07-.28.37v.45h-.19v-.97h.19v.19c.04-.14.17-.22.31-.22.09,0,.23.03.31.2.08-.17.21-.2.33-.2.23,0,.37.13.37.44v.55h-.19v-.55c0-.21-.1-.28-.2-.28-.09,0-.27.06-.28.35v.47h-.19v-.55Z"/>
    <path class="st0" d="M7.69,8.92c.28,0,.51.23.51.51s-.23.51-.51.51-.51-.22-.51-.51.23-.51.51-.51ZM7.69,9.76c.18,0,.32-.15.32-.34s-.14-.34-.32-.34-.32.15-.32.34.14.34.32.34Z"/>
    <path class="st0" d="M8.92,8.92c.28,0,.51.23.51.51s-.23.51-.51.51-.51-.22-.51-.51.23-.51.51-.51ZM8.92,9.76c.18,0,.32-.15.32-.34s-.14-.34-.32-.34-.32.15-.32.34.14.34.32.34Z"/>
    <path class="st0" d="M9.93,9.62c0,.11.05.15.12.15.06,0,.12-.03.12-.11,0-.01,0-.05-.02-.08h.17s.02.11.02.11c0,.14-.1.25-.29.25-.15,0-.3-.08-.3-.33v-.52h-.16v-.15h.16l.04-.28h.15v.28h.31v.15h-.31v.53Z"/>
    <path class="st0" d="M11.27,9.36c0-.21-.1-.28-.2-.28s-.31.07-.31.37v.45h-.19v-1.4h.19v.63c.04-.14.17-.22.33-.22.21,0,.37.13.37.44v.55h-.19v-.55Z"/>
    <path class="st0" d="M11.9,8.49c.07,0,.13.06.13.13s-.06.13-.13.13-.13-.06-.13-.13.06-.13.13-.13ZM11.99,8.94h-.19v.97h.19v-.97Z"/>
    <path class="st0" d="M13.26,9.75c-.12.14-.28.18-.42.18-.34,0-.55-.23-.55-.5s.22-.51.52-.51c.26,0,.5.16.5.52h-.83c0,.19.15.32.36.32.12,0,.22-.04.32-.12l.1.11ZM12.49,9.29h.62c-.05-.18-.19-.21-.3-.21-.12,0-.26.04-.32.21Z"/>
    <path class="st0" d="M14.01,9.18c-.03-.09-.09-.11-.15-.11-.09,0-.14.05-.14.12,0,.06.06.1.12.12l.14.05c.18.06.23.17.23.27,0,.18-.16.29-.35.29-.17,0-.33-.09-.37-.25l.17-.04c.02.08.11.13.21.13s.17-.06.17-.13c0-.07-.05-.1-.12-.12l-.13-.04c-.16-.05-.24-.13-.24-.26,0-.16.13-.29.32-.29.14,0,.27.06.32.23l-.17.04Z"/>
    <path class="st0" d="M15.47,8.92c.13,0,.26.04.35.18v-.16h.19v.97h-.19v-.16c-.09.13-.22.18-.35.18-.29,0-.48-.23-.48-.51s.19-.51.48-.51ZM15.49,9.08c-.2,0-.32.16-.32.34s.11.34.32.34.33-.14.33-.34c0-.2-.14-.34-.33-.34Z"/>
    <path class="st0" d="M17.06,9.36c0-.21-.1-.28-.2-.28s-.31.07-.31.37v.45h-.19v-.97h.19v.19c.04-.14.17-.22.33-.22.21,0,.37.13.37.44v.55h-.19v-.55Z"/>
    <path class="st0" d="M18.01,8.92c.13,0,.26.04.35.18v-.59h.19v1.4h-.19v-.16c-.09.13-.22.18-.35.18-.29,0-.48-.23-.48-.51s.19-.51.48-.51ZM18.03,9.08c-.2,0-.32.16-.32.34s.11.34.32.34.33-.14.33-.34c0-.2-.14-.34-.33-.34Z"/>
    <path class="st0" d="M20.4,9.29c0,.41-.2.64-.55.64s-.51-.24-.51-.49c0-.03.01-.13.04-.17h.18c-.02.05-.03.13-.03.16,0,.17.1.32.32.32.24,0,.36-.17.36-.46v-.74h.19v.74Z"/>
    <path class="st0" d="M20.93,9.48c0,.21.1.28.2.28s.31-.07.31-.37v-.45h.19v.97h-.19v-.19c-.04.14-.17.22-.33.22-.21,0-.37-.13-.37-.44v-.55h.19v.55Z"/>
    <path class="st0" d="M22.09,8.49c.07,0,.13.06.13.13s-.06.13-.13.13-.13-.06-.13-.13.06-.13.13-.13ZM22.18,8.94h-.19v.97h.19v-.97Z"/>
    <path class="st0" d="M23.02,8.92c.09,0,.22.02.35.12l-.09.13c-.1-.08-.22-.08-.25-.08-.21,0-.36.14-.36.34s.16.34.36.34c.02,0,.15,0,.25-.08l.09.13c-.13.1-.26.12-.35.12-.34,0-.55-.22-.55-.49s.19-.52.55-.52Z"/>
    <path class="st0" d="M24.51,9.75c-.12.14-.28.18-.42.18-.34,0-.55-.23-.55-.5s.22-.51.52-.51c.26,0,.5.16.5.52h-.83c0,.19.15.32.36.32.12,0,.22-.04.32-.12l.11.11ZM23.74,9.29h.62c-.05-.18-.19-.21-.3-.21-.11,0-.26.04-.32.21Z"/>
    <path class="st0" d="M25.26,9.18c-.03-.09-.09-.11-.15-.11-.09,0-.14.05-.14.12,0,.06.06.1.12.12l.14.05c.18.06.23.17.23.27,0,.18-.16.29-.35.29-.17,0-.33-.09-.37-.25l.17-.04c.02.08.11.13.21.13s.17-.06.17-.13c0-.07-.05-.1-.12-.12l-.13-.04c-.16-.05-.24-.13-.24-.26,0-.16.13-.29.32-.29.14,0,.27.06.32.23l-.17.04Z"/>
  </g>
  <g id="zWhHFd">
    <path class="st0" d="M15.19.51c.13-.13.41-.13.47.07.07.27-.33.36-.35.08v-.05c.02.08.11.14.18.1.08-.05.05-.16-.04-.17-.27-.04-.26.38,0,.41.39.05.49-.51.1-.63-.37-.11-.69.26-.55.62s.6.43.89.2c.38-.3.23-.85-.08-1.14.04.02.07.03.11.05.4.21.68.59.73,1.05.1.77-.53,1.42-1.31,1.3-.91-.13-1.3-1.24-.66-1.91.28-.3.88-.54,1.18-.13.24.33,0,.78-.42.74-.28-.02-.44-.39-.23-.6Z"/>
  </g>
</svg>